<svg width="73" height="44" viewBox="0 0 73 44" fill="none" xmlns="http://www.w3.org/2000/svg">
<path d="M67.137 3.79294C70.9519 7.31242 73 11.2598 73 17.6586C73 28.9183 63.9037 39.0103 50.6667 44L47.3593 39.5669C59.7111 33.7633 62.1259 26.2321 63.0926 21.4837C61.1037 22.378 58.5 22.6901 55.9444 22.4842C49.263 21.9501 44 17.1856 44 11.2598C44 8.2735 45.3657 5.40953 47.7968 3.29791C50.2278 1.1863 53.525 0 56.963 0C60.937 0 64.7407 1.57637 67.1407 3.79294" fill="#FF66B2"/>
<path d="M6.06436 40.2071C2.1185 36.6876 0 32.7402 0 26.3414C0 15.0817 9.41259 4.98969 23.1005 0L26.5215 4.43314C13.7454 10.2367 11.2476 17.7679 10.2516 22.5163C12.3088 21.622 15.0019 21.3099 17.6414 21.5158C24.5524 22.0531 30 26.8176 30 32.7402C30 35.7265 28.5873 38.5905 26.0728 40.7021C23.5583 42.8137 20.1478 44 16.5918 44C14.6252 43.9856 12.6817 43.6428 10.8743 42.9916C9.06699 42.3405 7.43195 41.3939 6.06436 40.2071Z" fill="#FF66B2"/>
</svg>
